<svg width="28" height="29" viewBox="0 0 28 29" fill="none" xmlns="http://www.w3.org/2000/svg">
<path d="M17.56 15.75C16.8118 16.0948 16.084 16.4821 15.38 16.91C14.8941 17.2719 14.433 17.6662 14 18.09C13.0712 17.0645 11.9081 16.2788 10.61 15.8C10.5053 15.7633 10.3939 15.7497 10.2834 15.76C10.173 15.7704 10.0661 15.8045 9.97 15.86C9.73 16.14 9.97 16.33 10.23 16.48C10.7398 16.7794 11.1813 17.1824 11.5257 17.663C11.8702 18.1436 12.1101 18.691 12.23 19.27C12.5638 21.349 12.5062 23.4721 12.06 25.53C11.9472 26.0428 11.723 26.5245 11.4033 26.941C11.0836 27.3575 10.6762 27.6985 10.21 27.94C10.8808 28.0438 11.566 28.0028 12.2197 27.82C12.8734 27.6372 13.4804 27.3167 14 26.88C14.4906 27.3109 15.0667 27.6334 15.6905 27.8264C16.3143 28.0194 16.9718 28.0785 17.62 28C17.62 28 17.62 27.9 17.62 27.89C17.1318 27.5876 16.7169 27.1804 16.4056 26.6978C16.0943 26.2153 15.8942 25.6695 15.82 25.1C15.5302 23.284 15.4898 21.4369 15.7 19.61C15.767 19.0185 15.9651 18.4495 16.28 17.9443C16.5948 17.4391 17.0185 17.0106 17.52 16.69C17.6601 16.6165 17.7883 16.5221 17.9 16.41C17.9887 16.2601 18.056 16.0985 18.1 15.93C17.91 15.85 17.68 15.69 17.56 15.75Z" fill="black"/>
<path d="M20.23 12.79C18.8 11.94 16.53 12.79 16.23 14.34C16.5905 14.5251 16.9861 14.6318 17.3908 14.653C17.7955 14.6742 18.2001 14.6095 18.578 14.463C18.9559 14.3166 19.2984 14.0918 19.5832 13.8035C19.8679 13.5151 20.0884 13.1697 20.23 12.79Z" fill="black"/>
<path d="M11.78 14.35C11.44 12.82 9.34 11.99 7.78 12.78C7.92476 13.1575 8.14658 13.5007 8.43134 13.7877C8.71609 14.0747 9.05752 14.2992 9.43386 14.4469C9.8102 14.5946 10.2132 14.6623 10.6171 14.6456C11.0211 14.6289 11.4171 14.5282 11.78 14.35Z" fill="black"/>
<path d="M19.54 15.41C19.7367 15.7156 19.9999 15.9727 20.3099 16.1622C20.62 16.3516 20.9689 16.4685 21.3305 16.5041C21.6922 16.5397 22.0572 16.4931 22.3982 16.3677C22.7393 16.2423 23.0476 16.0414 23.3 15.78C23.1073 15.4697 22.8457 15.2079 22.5355 15.0149C22.2253 14.8219 21.8749 14.7029 21.5113 14.6672C21.1477 14.6314 20.7808 14.6798 20.439 14.8086C20.0971 14.9374 19.7895 15.1432 19.54 15.41Z" fill="black"/>
<path d="M7.57 10.91C7.47318 10.5622 7.29884 10.2409 7.06006 9.97014C6.82127 9.69938 6.52426 9.48624 6.19131 9.34671C5.85836 9.20718 5.49812 9.14488 5.13765 9.16451C4.77718 9.18413 4.42584 9.28515 4.11 9.46C4.20164 9.8112 4.37305 10.1365 4.6109 10.4107C4.84875 10.6848 5.14663 10.9005 5.48138 11.0407C5.81613 11.181 6.17873 11.2422 6.54097 11.2195C6.90322 11.1969 7.25536 11.0909 7.57 10.91Z" fill="black"/>
<path d="M8.46 15.42C8.21325 15.1532 7.90867 14.9464 7.56963 14.8156C7.23058 14.6847 6.86607 14.6333 6.50405 14.6651C6.14203 14.697 5.79211 14.8113 5.48113 14.9994C5.17015 15.1874 4.90636 15.4442 4.71 15.75C4.95966 16.0115 5.26494 16.2134 5.60325 16.3409C5.94155 16.4684 6.30419 16.5181 6.66433 16.4864C7.02446 16.4547 7.37285 16.3424 7.68368 16.1578C7.99452 15.9732 8.25984 15.7211 8.46 15.42Z" fill="black"/>
<path d="M8.2 8C8.22331 7.64156 8.16414 7.28254 8.02704 6.95054C7.88994 6.61853 7.67856 6.32238 7.40914 6.08482C7.13971 5.84726 6.81942 5.67463 6.47286 5.58018C6.1263 5.48573 5.7627 5.47199 5.41 5.54C5.38465 5.89897 5.44244 6.25895 5.57887 6.59195C5.7153 6.92495 5.92669 7.222 6.19662 7.45999C6.46654 7.69799 6.78772 7.87053 7.13518 7.96418C7.48265 8.05784 7.84703 8.0701 8.2 8Z" fill="black"/>
<path d="M23.92 9.49C23.6073 9.30878 23.2572 9.20149 22.8966 9.17636C22.536 9.15122 22.1745 9.20889 21.8396 9.34496C21.5047 9.48103 21.2054 9.6919 20.9646 9.96142C20.7237 10.2309 20.5477 10.552 20.45 10.9C20.7623 11.0833 21.1126 11.1922 21.4738 11.2184C21.835 11.2446 22.1973 11.1873 22.5328 11.0509C22.8683 10.9146 23.1679 10.7029 23.4084 10.4323C23.649 10.1616 23.824 9.83917 23.92 9.49Z" fill="black"/>
<path d="M22.62 5.55C22.2672 5.47842 21.9026 5.48921 21.5547 5.58153C21.2067 5.67384 20.8848 5.8452 20.6138 6.08225C20.3429 6.31931 20.1304 6.61568 19.9927 6.9483C19.855 7.28091 19.7959 7.64082 19.82 8C20.1725 8.06949 20.5363 8.0572 20.8834 7.96409C21.2304 7.87098 21.5515 7.69953 21.8219 7.46291C22.0923 7.2263 22.3049 6.93082 22.4433 6.5992C22.5816 6.26758 22.6421 5.90865 22.62 5.55Z" fill="black"/>
<path d="M14.6 9.44C14.2705 9.57533 13.9756 9.7829 13.737 10.0474C13.4984 10.3119 13.3222 10.6266 13.2214 10.9682C13.1207 11.3099 13.0979 11.6698 13.1547 12.0215C13.2116 12.3731 13.3467 12.7075 13.55 13C13.8808 12.8662 14.1771 12.6594 14.4168 12.3951C14.6565 12.1307 14.8334 11.8157 14.9343 11.4735C15.0353 11.1312 15.0576 10.7706 14.9997 10.4185C14.9419 10.0664 14.8052 9.73191 14.6 9.44Z" fill="black"/>
<path d="M11 2.26C10.7568 2.51785 10.5773 2.82907 10.476 3.16875C10.3746 3.50842 10.3542 3.86711 10.4165 4.21608C10.4787 4.56505 10.6217 4.89459 10.8342 5.17833C11.0467 5.46206 11.3226 5.69209 11.64 5.85C11.8832 5.59216 12.0627 5.28093 12.164 4.94125C12.2654 4.60158 12.2858 4.24289 12.2235 3.89392C12.1613 3.54496 12.0183 3.21541 11.8058 2.93167C11.5933 2.64794 11.3174 2.41791 11 2.26Z" fill="black"/>
<path d="M25.34 12.77C25.1021 12.5061 24.8065 12.3007 24.4762 12.1697C24.1459 12.0387 23.7899 11.9857 23.4358 12.0147C23.0817 12.0437 22.739 12.1541 22.4345 12.3371C22.13 12.5201 21.8718 12.7709 21.68 13.07C21.92 13.3302 22.2161 13.5323 22.5459 13.661C22.8756 13.7897 23.2304 13.8415 23.5832 13.8126C23.936 13.7837 24.2775 13.6748 24.5819 13.4941C24.8864 13.3135 25.1456 13.0658 25.34 12.77Z" fill="black"/>
<path d="M2.68 12.78C2.87607 13.0733 3.13569 13.3188 3.43958 13.4981C3.74346 13.6774 4.08383 13.7859 4.4354 13.8157C4.78698 13.8455 5.14076 13.7957 5.47047 13.6701C5.80019 13.5444 6.09738 13.3462 6.34 13.09C6.1504 12.7886 5.89339 12.5353 5.58924 12.3501C5.28508 12.1649 4.94208 12.0529 4.58726 12.0229C4.23243 11.9928 3.87548 12.0455 3.54451 12.1769C3.21354 12.3083 2.9176 12.5148 2.68 12.78Z" fill="black"/>
<path d="M17.05 2.24C16.7341 2.40025 16.4594 2.63132 16.2474 2.91518C16.0355 3.19904 15.892 3.52803 15.8281 3.87648C15.7642 4.22494 15.7817 4.58344 15.8792 4.92403C15.9766 5.26462 16.1514 5.57809 16.39 5.84C16.709 5.68282 16.9869 5.45318 17.2013 5.16944C17.4157 4.8857 17.5608 4.55573 17.625 4.20591C17.6891 3.85609 17.6705 3.49611 17.5707 3.15476C17.4708 2.8134 17.2925 2.50014 17.05 2.24Z" fill="black"/>
<path d="M13.79 4.6C13.5836 4.88535 13.4445 5.2138 13.3832 5.56064C13.322 5.90748 13.3402 6.26369 13.4364 6.60249C13.5327 6.94128 13.7045 7.25385 13.9389 7.51669C14.1734 7.77953 14.4644 7.98581 14.79 8.12C14.9945 7.83404 15.132 7.50566 15.1922 7.15927C15.2524 6.81288 15.2338 6.45738 15.1377 6.11918C15.0416 5.78098 14.8706 5.46878 14.6372 5.20577C14.4039 4.94276 14.1143 4.73571 13.79 4.6Z" fill="black"/>
<path d="M12.55 9C12.61 7.61 11.55 6.66 9.89 6.63C9.51 7.85 11 9.16 12.55 9Z" fill="black"/>
<path d="M11.52 11.55C11.52 10.22 10.23 9.32 8.66 9.55C8.68257 9.88404 8.77974 10.2088 8.94435 10.5003C9.10896 10.7919 9.33684 11.0428 9.61121 11.2347C9.88558 11.4265 10.1995 11.5545 10.5298 11.609C10.8601 11.6636 11.1985 11.6434 11.52 11.55Z" fill="black"/>
<path d="M19.35 9.58C17.9 9.25 16.35 10.33 16.51 11.58C17.7 12 19.46 10.89 19.35 9.58Z" fill="black"/>
<path d="M18.64 6.32C17.25 6.32 15.98 7.85 16.47 8.74C16.7812 8.7559 17.092 8.70202 17.3797 8.58228C17.6674 8.46255 17.9247 8.28001 18.1327 8.04801C18.3407 7.81602 18.4942 7.54044 18.582 7.24145C18.6698 6.94246 18.6896 6.62763 18.64 6.32Z" fill="black"/>
<path d="M3 10.85C2.87882 10.5765 2.69476 10.3354 2.46281 10.1465C2.23085 9.95753 1.95756 9.82603 1.66517 9.76268C1.37278 9.69933 1.06957 9.70592 0.78021 9.78191C0.490851 9.85791 0.223527 10.0012 0 10.2C0.135878 10.4593 0.32703 10.6856 0.559958 10.863C0.792886 11.0403 1.06191 11.1644 1.34803 11.2264C1.63415 11.2884 1.9304 11.2868 2.21584 11.2218C2.50129 11.1567 2.76897 11.0298 3 10.85Z" fill="black"/>
<path d="M2 6.33C2.03077 6.62345 2.12946 6.9057 2.28826 7.15439C2.44705 7.40308 2.66159 7.61136 2.91486 7.76274C3.16812 7.91412 3.45317 8.00443 3.7474 8.02652C4.04163 8.04861 4.33697 8.00187 4.61 7.89C4.58331 7.5947 4.48714 7.3099 4.32937 7.05885C4.17159 6.80781 3.95667 6.59765 3.70216 6.44553C3.44765 6.29341 3.16076 6.20364 2.86494 6.18356C2.56911 6.16348 2.27273 6.21366 2 6.33Z" fill="black"/>
<path d="M24.5 14.77C24.6533 15.0139 24.8574 15.2218 25.0985 15.3795C25.3395 15.5372 25.6118 15.641 25.8967 15.6837C26.1816 15.7264 26.4723 15.7071 26.749 15.6271C27.0257 15.5471 27.2819 15.4082 27.5 15.22C27.3568 14.9647 27.1572 14.7455 26.9163 14.5792C26.6754 14.4129 26.3997 14.3038 26.1102 14.2604C25.8207 14.217 25.5251 14.2403 25.2461 14.3287C24.967 14.417 24.7118 14.5679 24.5 14.77Z" fill="black"/>
<path d="M0.45 15.19C0.659457 15.391 0.911368 15.5425 1.18716 15.6332C1.46295 15.724 1.75559 15.7516 2.0435 15.7142C2.33141 15.6768 2.60724 15.5752 2.85067 15.417C3.0941 15.2588 3.29891 15.0479 3.45 14.8C3.24417 14.5916 2.99296 14.4336 2.71597 14.3384C2.43899 14.2432 2.14374 14.2133 1.85328 14.251C1.56283 14.2888 1.28504 14.3932 1.04161 14.5561C0.798181 14.719 0.595705 14.9359 0.45 15.19Z" fill="black"/>
<path d="M13 15.35C13 15.6152 13.1054 15.8696 13.2929 16.0571C13.4804 16.2446 13.7348 16.35 14 16.35C14.2652 16.35 14.5196 16.2446 14.7071 16.0571C14.8946 15.8696 15 15.6152 15 15.35C15 15.0848 14.8946 14.8304 14.7071 14.6429C14.5196 14.4554 14.2652 14.35 14 14.35C13.7387 14.3622 13.4914 14.4714 13.3064 14.6564C13.1214 14.8414 13.0122 15.0887 13 15.35Z" fill="black"/>
<path d="M26 6.33C25.7271 6.21847 25.432 6.17164 25.1379 6.19319C24.8439 6.21474 24.5588 6.30408 24.305 6.45421C24.0512 6.60434 23.8357 6.81119 23.6752 7.05855C23.5147 7.30591 23.4137 7.58707 23.38 7.88C23.6525 7.99819 23.9491 8.05015 24.2455 8.0316C24.5419 8.01306 24.8298 7.92455 25.0854 7.77332C25.341 7.62209 25.5572 7.41245 25.7161 7.16157C25.8751 6.9107 25.9724 6.62572 26 6.33Z" fill="black"/>
<path d="M14.29 0C14.0482 0.177412 13.8515 0.409279 13.716 0.676826C13.5805 0.944373 13.5098 1.24008 13.5098 1.54C13.5098 1.83992 13.5805 2.13563 13.716 2.40317C13.8515 2.67072 14.0482 2.90259 14.29 3.08C14.5165 2.89233 14.6988 2.65702 14.8239 2.39083C14.949 2.12464 15.0139 1.83413 15.0139 1.54C15.0139 1.24587 14.949 0.955358 14.8239 0.68917C14.6988 0.422982 14.5165 0.187669 14.29 0Z" fill="black"/>
<path d="M20.93 2.82C20.6379 2.83098 20.3522 2.90851 20.0946 3.04667C19.837 3.18484 19.6143 3.38001 19.4436 3.61728C19.2729 3.85456 19.1586 4.12768 19.1094 4.41583C19.0603 4.70398 19.0776 4.99955 19.16 5.28C19.4566 5.2815 19.7492 5.21207 20.0135 5.07749C20.2778 4.94291 20.506 4.74708 20.6792 4.50635C20.8525 4.26561 20.9656 3.98694 21.0092 3.69359C21.0528 3.40025 21.0257 3.10072 20.93 2.82Z" fill="black"/>
<path d="M18.78 17.4C18.805 17.6928 18.8979 17.9758 19.0514 18.2264C19.2049 18.477 19.4148 18.6884 19.6643 18.8437C19.9137 18.999 20.196 19.094 20.4886 19.1212C20.7813 19.1483 21.0762 19.1068 21.35 19C21.327 18.7063 21.2354 18.4221 21.0824 18.1703C20.9294 17.9186 20.7194 17.7063 20.4693 17.5506C20.2192 17.3949 19.936 17.3001 19.6426 17.274C19.3492 17.2478 19.0537 17.291 18.78 17.4Z" fill="black"/>
<path d="M7.09 2.79C7.01275 3.04737 6.98816 3.31766 7.01769 3.58474C7.04722 3.85182 7.13026 4.11021 7.26187 4.34449C7.39347 4.57876 7.57094 4.78412 7.78366 4.94829C7.99639 5.11246 8.24002 5.23207 8.5 5.3C8.83 5.36 8.93 5.23 8.95 4.91C8.98293 4.38259 8.80579 3.86357 8.45728 3.46635C8.10877 3.06912 7.61722 2.82596 7.09 2.79Z" fill="black"/>
<path d="M8.83 17.27C8.57278 17.2337 8.31086 17.2503 8.06026 17.3187C7.80966 17.3871 7.57565 17.5059 7.37253 17.6678C7.16941 17.8297 7.00146 18.0314 6.87895 18.2605C6.75644 18.4895 6.68193 18.7412 6.66 19C7.15104 19.1761 7.69144 19.1534 8.16595 18.9366C8.64046 18.7199 9.01152 18.3264 9.2 17.84C9.35 17.44 9.23 17.3 8.83 17.27Z" fill="black"/>
<path d="M25 10.86C25.231 11.0398 25.4987 11.1667 25.7842 11.2318C26.0696 11.2968 26.3658 11.2984 26.652 11.2364C26.9381 11.1744 27.2071 11.0503 27.44 10.873C27.673 10.6956 27.8641 10.4693 28 10.21C27.7783 10.0069 27.5111 9.85985 27.2208 9.78132C26.9306 9.7028 26.6257 9.69505 26.3318 9.75873C26.0379 9.8224 25.7636 9.95564 25.5319 10.1473C25.3001 10.3389 25.1177 10.5833 25 10.86Z" fill="black"/>
</svg>
